<?xml version="1.0" encoding="utf-8"?>
<!-- Generator: Adobe Illustrator 26.0.1, SVG Export Plug-In . SVG Version: 6.00 Build 0)  -->
<svg version="1.1" id="Calque_1" xmlns="http://www.w3.org/2000/svg" xmlns:xlink="http://www.w3.org/1999/xlink" x="0px" y="0px"
	 viewBox="0 0 1920 1080" style="enable-background:new 0 0 1920 1080;" xml:space="preserve">
<style type="text/css">
	.st0{fill:#FFFFFF;}
</style>
<g>
	<path class="st0" d="M526.9,371.6c10.3-7.3,19.5,4.3,32-2.4c-2.6,30,18.2,35.8,18.2,35.8c-6.5-11,1.7-31.1,1.7-31.1
		c3.5-8.8,19.4-26,60.7-26c44.4,0,78.2,25.3,78.2,62.5c0,38.8-32.8,50.3-61,60c-21.3,7.5-40,13.4-40,30c0,13.4,10.9,24.1,31,24.1
		c37.8,0,62.3-19.5,66.9-23.8c68.1-63.5,29.9-139.7-9.5-160.1c-39.4-20.4-91.3-12.3-120.2,5.9C530,339,526.9,371.6,526.9,371.6z"/>
	<path class="st0" d="M759.8,550.2c-10.3,7.3-19.5-4.3-32,2.4c2.6-30-18.2-35.8-18.2-35.8c6.5,11-1.7,31.1-1.7,31.1
		c-3.5,8.8-19.4,26-60.7,26c-44.4,0-78.2-25.3-78.2-62.5c0-38.8,32.8-59.5,61-69.2c21.3-7.5,40-13.4,40-30c0-13.4-10.9-24.1-31-24.1
		c-37.8,0-62.3,19.5-66.9,23.8c-68.1,63.5-29.9,148.9,9.5,169.3c39.4,20.4,91.3,12.3,120.2-5.9C756.7,582.7,759.8,550.2,759.8,550.2
		z"/>
</g>
<path class="st0" d="M234.2,561.1v-208c0-6.4,3-9.4,9.4-9.4h118.6c15.1,0,19.2,16.8,19.2,45.4c0,3.4-2,5-4.7,5
	c-5.4,0-13.8-8.4-64.9-8.4h-27.9v49.4c0,3.4,1.7,5,5,5h59.8c4.4,0,7.7,3.7,7.7,20.8c0,17.5-3.4,21.2-7.7,21.2H289c-3.4,0-5,1.7-5,5
	v73.9c0,4-4.4,7.7-24.9,7.7C238.2,568.9,234.2,565.2,234.2,561.1z"/>
<path class="st0" d="M442.9,561.1V351.4c0-4,4-7.7,24.9-7.7c20.5,0,24.9,3.7,24.9,7.7v209.7c0,4-4.4,7.7-24.9,7.7
	C446.9,568.9,442.9,565.2,442.9,561.1z"/>
<path class="st0" d="M802,561.1V351.4c0-4,4-7.7,24.9-7.7c20.5,0,24.9,3.7,24.9,7.7v83c0,3.4,1.7,5,5,5h80.3c3.4,0,5-1.7,5-5v-83
	c0-4,4-7.7,24.9-7.7c20.5,0,24.9,3.7,24.9,7.7v209.7c0,4-4.4,7.7-24.9,7.7c-20.8,0-24.9-3.7-24.9-7.7v-73.3c0-3.4-1.7-5-5-5h-80.3
	c-3.4,0-5,1.7-5,5v73.3c0,4-4.4,7.7-24.9,7.7C806,568.9,802,565.2,802,561.1z"/>
<g>
	<path class="st0" d="M1441.2,349.7c12.2,0,17.5,1.4,19.5,2.3c0,0,0,0,0,0l-0.3,0.3l-0.2,0.4l-68.6,116.9l-0.4,0.6l-0.2,0.7
		c-0.1,0.4-1.3,4.3-1.3,7.8v81.7c-1.1,0.7-5.3,2.4-18.9,2.4c-13.5,0-17.8-1.7-18.9-2.3v-81.8c0-3.5-1.1-7.3-1.3-7.8l-0.2-0.7
		l-0.4-0.6l-68.6-116.9l0,0l0,0c-0.2-0.3-0.3-0.5-0.4-0.7c1.9-0.8,7-2.3,19.8-2.3c20.1,0,22.3,3.2,23,4.4l41.6,75.2l5.2,9.5l5.2-9.5
		l41.6-75.2c0.3-0.6,1-1.5,3.8-2.5C1425.6,350.4,1432.2,349.7,1441.2,349.7 M1441.2,343.7c-21.2,0-26.2,3.4-28.6,7.4l-41.7,75.3
		l-41.7-75.3c-2.4-4-7.1-7.4-28.2-7.4c-20.5,0-26.2,3.7-26.2,7.4c0,1.7,0.7,3,1.7,4.7l68.6,116.9c0,0,1,3.4,1,6v82.3
		c0,4,4,7.7,24.9,7.7c20.5,0,24.9-3.7,24.9-7.7v-82.3c0-2.7,1-6,1-6l68.6-116.9c1.3-1.7,2-3,2-4.7
		C1467.4,347.4,1461.4,343.7,1441.2,343.7L1441.2,343.7z"/>
</g>
<g>
	<path class="st0" d="M1642.9,349.7c3.4,0,7,1,9.6,8.1c2.3,6.3,3.5,15.8,3.5,30.1c-1-0.2-2.2-0.5-3.4-0.8
		c-9.6-2.4-29.6-7.3-68.9-7.3h-24.9c-6.7,0-11,4.3-11,11v39.3c0,6.7,4.3,11,11,11l60.5,0c0.5,0.9,2.1,4.3,2.1,15.5
		c0,11.5-1.5,15-2.1,15.8h-60.5c-6.7,0-11,4.3-11,11v38.3c0,6.7,4.3,11,11,11h33.6c39.6,0,54.5-5,61.7-7.4c0.6-0.2,1.3-0.4,1.9-0.6
		c-0.1,14.2-1.2,23.7-3.5,30c-2.6,7.1-6.2,8.1-9.6,8.1h-128.4c-3.1,0-3.4-0.4-3.4-3.4V353.1c0-3.1,0.4-3.4,3.4-3.4H1642.9
		 M1642.9,343.7h-128.4c-6.4,0-9.4,3-9.4,9.4v206.3c0,6.4,3,9.4,9.4,9.4h128.4c15.1,0,19.2-16.8,19.2-45.4c0-3.4-2-5-4.7-5
		c-5.4,0-13.8,8.4-64.9,8.4h-33.6c-3.4,0-5-1.7-5-5v-38.3c0-3.4,1.7-5,5-5h60.8c4.4,0,7.7-4.4,7.7-21.8c0-17.1-3.4-21.5-7.7-21.5
		h-60.8c-3.4,0-5-1.7-5-5v-39.3c0-3.4,1.7-5,5-5h24.9c51.1,0,68.6,8.4,73.9,8.4c2.4,0,4.4-1.7,4.4-5
		C1662,360.5,1658,343.7,1642.9,343.7L1642.9,343.7z"/>
</g>
<g>
	<path class="st0" d="M1222.8,349.7c3.4,0,7,1,9.6,8.1c2.3,6.3,3.5,15.8,3.5,30.1c-1-0.2-2.2-0.5-3.4-0.8
		c-9.6-2.4-29.6-7.3-68.9-7.3h-24.9c-6.7,0-11,4.3-11,11v39.3c0,6.7,4.3,11,11,11l60.5,0c0.5,0.9,2.1,4.3,2.1,15.5
		c0,11.5-1.5,15-2.1,15.8h-60.5c-6.7,0-11,4.3-11,11v38.3c0,6.7,4.3,11,11,11h33.6c39.6,0,54.5-5,61.7-7.4c0.6-0.2,1.3-0.4,1.9-0.6
		c-0.1,14.2-1.2,23.7-3.5,30c-2.6,7.1-6.2,8.1-9.6,8.1h-128.4c-3.1,0-3.4-0.4-3.4-3.4V353.1c0-3.1,0.4-3.4,3.4-3.4H1222.8
		 M1222.8,343.7h-128.4c-6.4,0-9.4,3-9.4,9.4v206.3c0,6.4,3,9.4,9.4,9.4h128.4c15.1,0,19.2-16.8,19.2-45.4c0-3.4-2-5-4.7-5
		c-5.4,0-13.8,8.4-64.9,8.4h-33.6c-3.4,0-5-1.7-5-5v-38.3c0-3.4,1.7-5,5-5h60.8c4.4,0,7.7-4.4,7.7-21.8c0-17.1-3.4-21.5-7.7-21.5
		h-60.8c-3.4,0-5-1.7-5-5v-39.3c0-3.4,1.7-5,5-5h24.9c51.1,0,68.6,8.4,73.9,8.4c2.4,0,4.4-1.7,4.4-5
		C1242,360.5,1237.9,343.7,1222.8,343.7L1222.8,343.7z"/>
</g>
<g>
	<path class="st0" d="M289.3,620.7c0,1.6-1.3,2.9-3,2.9h-35.2V651h33.4c1.8,0,3,1.2,3,2.9c0,1.6-1.3,2.9-3,2.9h-33.4v28.7
		c0,1.7-1.3,3-2.9,3s-2.9-1.4-2.9-3v-62.1c0-3,1.9-5.6,5.6-5.6h35.4C288.1,617.8,289.3,619,289.3,620.7z"/>
	<path class="st0" d="M487.9,620.7c0,1.6-1.3,2.9-3,2.9h-35.2v26.2h34.6c1.7,0,3,1.3,3,2.9s-1.3,2.9-3,2.9h-34.6v26.7h35.4
		c1.7,0,3,1.3,3,2.9s-1.3,2.9-3,2.9h-35.6c-3.7,0-5.6-2.5-5.6-5.6v-59.1c0-3,1.9-5.6,5.6-5.6h35.4
		C486.6,617.8,487.9,619.1,487.9,620.7z"/>
	<path class="st0" d="M684.3,622.8c0.7,0.6,1.2,1.4,1.2,2.4c0,1.6-1.3,2.9-2.9,2.9c-1.1,0-1.7-0.6-2.2-0.9c-4-2.9-9.2-4.3-15.2-4.3
		c-13,0-17.6,6.2-17.6,13.4c0,7.3,4,10.5,18.5,13.3c17.3,3.3,24.6,8,24.6,19.3c0,12.3-9.2,20.3-24.8,20.3c-10.6,0-17.8-2.9-24.2-7.3
		c-1-0.7-1.5-1.6-1.5-2.6c0-1.6,1.3-2.9,2.9-2.9c0.6,0,1.4,0.2,2.3,0.9c5.1,3.6,10.3,6.1,20.3,6.1c11.9,0,19-5.5,19-14.4
		c0-7.1-4.6-10.5-19.9-13.3c-16.2-2.9-23.1-8.5-23.1-19.1c0-11.9,8.7-19.3,23.5-19.3C673,617,680.2,619.3,684.3,622.8z"/>
	<path class="st0" d="M890.4,620.7c0,1.6-1.4,2.9-3,2.9h-21.5v61.9c0,1.7-1.2,3-2.9,3s-2.9-1.3-2.9-3v-61.9h-21.7
		c-1.7,0-3.1-1.3-3.1-2.9s1.4-2.9,3.1-2.9h49.1C889.1,617.8,890.4,619.1,890.4,620.7z"/>
	<path class="st0" d="M1048.4,620.4v65.2c0,1.7-1.3,3-2.9,3c-1.7,0-2.9-1.3-2.9-3v-65.2c0-1.7,1.3-3,2.9-3
		S1048.4,618.7,1048.4,620.4z"/>
	<path class="st0" d="M1261.8,620.4c0,0.6-0.2,1.1-0.5,1.8l-22.3,59.7c-1.6,4.2-3,6.7-7.6,6.7c-4.5,0-6.2-3-7.6-6.7l-22.3-59.7
		c-0.3-0.7-0.5-1.2-0.5-1.8c0-1.7,1.3-3,3-3c1.2,0,2.4,0.8,2.8,2l23.2,62.2c0.3,0.8,0.7,1.2,1.4,1.2c0.7,0,1.1-0.4,1.4-1.2
		l23.1-62.2c0.5-1.3,1.6-2,2.8-2C1260.5,617.4,1261.8,618.7,1261.8,620.4z"/>
	<path class="st0" d="M1463.6,685.7c0,1.7-1.3,3-3,3c-1.2,0-2.4-0.8-2.8-2l-8.6-23.4h-33.6l-8.5,23.4c-0.5,1.3-1.6,2-2.8,2
		c-1.7,0-3-1.3-3-3c0-0.6,0.2-1.1,0.5-1.8l21.8-59.6c1.7-4.7,4.5-6.9,8.8-6.9c4.4,0,7.1,2.1,8.9,6.9l21.8,59.5
		C1463.4,684.6,1463.6,685.1,1463.6,685.7z M1447.1,657.4l-11.7-31.9c-0.6-1.7-1.6-2.5-3-2.5c-1.5,0-2.4,0.8-3,2.6l-11.6,31.8
		H1447.1z"/>
	<path class="st0" d="M1622,620.4v61.9h35.1c1.5,0,3,1.3,3,2.9c0,1.7-1.4,2.9-3,2.9h-35c-3.9,0-5.9-2.7-5.9-5.9v-61.8
		c0-1.7,1.3-3,2.9-3S1622,618.7,1622,620.4z"/>
</g>
</svg>
